<svg width="163" height="97" viewBox="0 0 163 97" fill="none" xmlns="http://www.w3.org/2000/svg">
<g clip-path="url(#clip0)">
<path fill-rule="evenodd" clip-rule="evenodd" d="M45.2957 56.2919C46.1769 53.9316 44.3159 51.4579 42.0756 52.0117L4.3159 61.3463C2.1796 61.8745 1.34587 64.7757 2.81579 66.5665L26.3748 95.2681C27.7727 96.9712 30.2958 96.4688 31.095 94.3283L45.2957 56.2919ZM42.2464 58.9256C43.1248 56.5492 41.2209 54.0742 38.9711 54.6676L8.99721 62.5745C6.87299 63.1349 6.07777 66.0317 7.56274 67.7999L26.3462 90.1668C27.7575 91.8474 30.2678 91.3318 31.056 89.1994L42.2464 58.9256Z" fill="#FF914D"/>
<path fill-rule="evenodd" clip-rule="evenodd" d="M92.5009 69.5975C88.9105 78.7641 93.4612 89.2571 102.665 93.0343C111.869 96.8115 122.241 92.4425 125.831 83.2759C129.421 74.1094 124.871 63.6164 115.667 59.8392C106.463 56.062 96.0912 60.431 92.5009 69.5975ZM95.3255 70.7567C92.3437 78.3696 96.1231 87.0841 103.767 90.2211C111.411 93.3581 120.025 89.7297 123.007 82.1167C125.988 74.5038 122.209 65.7893 114.565 62.6523C106.921 59.5154 98.3073 63.1438 95.3255 70.7567Z" fill="#FF914D"/>
<path fill-rule="evenodd" clip-rule="evenodd" d="M138.911 44.1258L160.154 23.7443L140.243 2L119 22.3814L138.911 44.1258ZM139.038 40.1138L156.235 23.6145L140.116 6.01198L122.919 22.5112L139.038 40.1138Z" fill="#FF914D"/>
</g>
<defs>
<clipPath id="clip0">
<rect width="163" height="97" fill="white"/>
</clipPath>
</defs>
</svg>
