<svg width="165" height="129" viewBox="0 0 165 129" fill="none" xmlns="http://www.w3.org/2000/svg">
<g clip-path="url(#clip0)">
<path fill-rule="evenodd" clip-rule="evenodd" d="M116.678 87.9039C114.183 87.9445 112.627 90.5796 113.977 92.4775L137.289 125.251C138.584 127.071 141.573 126.8 142.66 124.765L160.529 91.3215C161.564 89.3852 160.134 87.1968 157.859 87.2339L116.678 87.9039ZM120.305 89.8342C117.797 89.8833 116.256 92.5585 117.646 94.451L136.642 120.313C137.962 122.109 140.933 121.804 141.994 119.763L155.773 93.2595C156.782 91.3191 155.345 89.1479 153.081 89.1922L120.305 89.8342Z" fill="#FF914D"/>
<path fill-rule="evenodd" clip-rule="evenodd" d="M113 39C122.941 39 131 30.7173 131 20.5C131 10.2827 122.941 2 113 2C103.059 2 95 10.2827 95 20.5C95 30.7173 103.059 39 113 39ZM113 35.8644C121.256 35.8644 127.949 28.9855 127.949 20.5C127.949 12.0145 121.256 5.13558 113 5.13558C104.744 5.13558 98.0508 12.0145 98.0508 20.5C98.0508 28.9855 104.744 35.8644 113 35.8644Z" fill="#FF914D"/>
<path fill-rule="evenodd" clip-rule="evenodd" d="M41.8693 14.6814L14.6814 2L2 29.1879L29.1879 41.8693L41.8693 14.6814ZM38.0722 16.063L16.063 5.79707L5.79708 27.8063L27.8063 38.0722L38.0722 16.063Z" fill="#FF914D"/>
</g>
<defs>
<clipPath id="clip0">
<rect width="165" height="129" fill="white"/>
</clipPath>
</defs>
</svg>
