<svg width="321" height="129" viewBox="0 0 321 129" fill="none" xmlns="http://www.w3.org/2000/svg">
<path fill-rule="evenodd" clip-rule="evenodd" d="M9.00282 54.2326C6.80075 54.7784 5.9779 57.4765 7.5007 59.1582L59.7838 116.896C61.3827 118.662 64.3027 117.949 64.9088 115.646L84.8074 40.0194C85.3872 37.8161 83.3959 35.7961 81.1845 36.3441L9.00282 54.2326ZM15.282 56.5117C13.0674 57.0695 12.2633 59.7988 13.8219 61.4682L57.2456 107.979C58.8663 109.715 61.7656 108.969 62.3471 106.666L77.8419 45.3162C78.3978 43.115 76.402 41.1179 74.2005 41.6724L15.282 56.5117Z" fill="#FF914D"/>
<path fill-rule="evenodd" clip-rule="evenodd" d="M291.5 50C303.926 50 314 39.9264 314 27.5C314 15.0736 303.926 5 291.5 5C279.074 5 269 15.0736 269 27.5C269 39.9264 279.074 50 291.5 50ZM291.5 46.1864C301.82 46.1864 310.186 37.8202 310.186 27.5C310.186 17.1798 301.82 8.81355 291.5 8.81355C281.18 8.81355 272.814 17.1798 272.814 27.5C272.814 37.8202 281.18 46.1864 291.5 46.1864Z" fill="#FF914D"/>
</svg>
