<?xml version="1.0"?>
<svg xmlns="http://www.w3.org/2000/svg" xmlns:xlink="http://www.w3.org/1999/xlink" version="1.1" id="Capa_1" x="0px" y="0px" viewBox="0 0 511.296 511.296" style="enable-background:new 0 0 511.296 511.296;" xml:space="preserve" width="512px" height="512px" class=""><g><g>
	<path style="fill:#FF3F3F" d="M319.325,376.585H63.362c-4.143,0-7.5,3.358-7.5,7.5v30.276c0,4.142,3.357,7.5,7.5,7.5h255.963   c4.143,0,7.5-3.358,7.5-7.5v-30.276C326.825,379.943,323.468,376.585,319.325,376.585z" data-original="#AAAAAA" class="" data-old_color="#AAAAAA"/>
	<path style="fill:#EC0202" d="M319.325,376.585h-27v45.276h27c4.143,0,7.5-3.358,7.5-7.5v-30.276   C326.825,379.943,323.468,376.585,319.325,376.585z" data-original="#999999" class="active-path" data-old_color="#999999"/>
	<circle style="fill:#FF801B" cx="191.344" cy="249.714" r="104.35" data-original="#FFDF65" class="" data-old_color="#FFDF65"/>
	<path style="fill:#C66517" d="M191.344,145.365c-5.745,0-11.379,0.472-16.871,1.365c49.607,8.065,87.479,51.099,87.479,102.985   c0,51.886-37.872,94.92-87.479,102.985c5.492,0.893,11.126,1.365,16.871,1.365c57.631,0,104.35-46.719,104.35-104.35   C295.693,192.084,248.974,145.365,191.344,145.365z" data-original="#FFCD2C" class="" data-old_color="#FFCD2C"/>
	<path style="fill:#FF1313" d="M192.846,242.184c-4.216-0.357-7.081-1.59-8.518-3.663c-1.522-2.199-1.613-5.359-1.421-7.623   c0.236-2.796,1.839-9.211,11.688-8.376c5.454,0.463,7.6,8.108,7.605,8.127c1.022,4.014,5.108,6.44,9.118,5.418   c4.015-1.022,6.44-5.104,5.419-9.118c-0.115-0.453-1.208-4.55-4.009-8.802c-3.554-5.394-8.314-8.837-13.885-10.102v-6.445   c0-4.142-3.357-7.5-7.5-7.5c-4.143,0-7.5,3.358-7.5,7.5v7.247c-9.92,3.332-15.148,12.113-15.884,20.783   c-0.573,6.762,0.823,12.79,4.037,17.431c2.822,4.076,8.511,9.131,19.581,10.069c12.306,1.044,11.771,7.359,11.569,9.736   c-0.154,1.833-1.457,10.94-11.83,10.052c-8.155-0.692-12.428-9.051-12.559-9.313c-1.776-3.715-6.222-5.302-9.954-3.551   c-3.749,1.761-5.361,6.227-3.6,9.977c0.273,0.581,6.025,12.513,18.64,16.585v7.212c0,4.142,3.357,7.5,7.5,7.5   c4.143,0,7.5-3.358,7.5-7.5v-6.524c11.601-2.64,18.363-12.707,19.251-23.172C219.063,256.705,212.938,243.887,192.846,242.184z" data-original="#F78819" class="" data-old_color="#F78819"/>
	<path style="fill:#FFC89F" d="M507.689,1.433c-1.941-1.41-4.439-1.809-6.726-1.066l-62.18,20.191L337.707,43.252   c-33.673,7.56-64.676,21.985-92.178,42.899l-81.844,62.933c8.809-2.418,18.081-3.719,27.658-3.719   c21.723,0,41.878,6.661,58.581,18.02c4.409-2.153,8.95-3.979,13.596-5.436l25.668-8.053l-55.928,57.55   c-10.308,10.291-10.545,26.62-0.529,37.206c5.221,5.52,12.253,8.374,19.359,8.374c5.179-0.001,10.397-1.517,14.98-4.622   l75.827-51.381l26.054-5.301c36.16-7.357,67.128-29.765,85.423-61.682l51.171-16.222c3.116-0.988,5.233-3.88,5.233-7.149V7.501   C510.779,5.1,509.63,2.844,507.689,1.433z" data-original="#FFC89F" class=""/>
	<g>
		<path style="fill:#F7B081;" d="M505.546,79.043l-51.171,16.222c-18.295,31.917-49.263,54.325-85.423,61.682l-26.054,5.301    l-75.827,51.381c-4.583,3.105-9.802,4.622-14.98,4.622c-7.106,0.001-14.139-2.854-19.359-8.374    c-0.292-0.308-0.573-0.622-0.847-0.94c-8.924,10.323-8.699,25.626,0.847,35.716c5.221,5.52,12.253,8.374,19.359,8.374    c5.179-0.001,10.397-1.517,14.98-4.622l75.827-51.381l26.054-5.301c36.16-7.357,67.128-29.765,85.423-61.682l51.171-16.222    c3.116-0.988,5.233-3.88,5.233-7.149V71.893C510.779,75.163,508.662,78.055,505.546,79.043z" data-original="#F7B081" class=""/>
	</g>
	<path style="fill:#FFCD2C" d="M330.753,327.157H51.935c-17.763,0-32.214,14.451-32.214,32.214s14.451,32.214,32.214,32.214   h278.818c17.763,0,32.214-14.451,32.214-32.214S348.516,327.157,330.753,327.157z" data-original="#E0E0E0" class="" data-old_color="#E0E0E0"/>
	<path style="fill:#FFCD2C" d="M323.979,406.861H58.708c-32.087,0-58.191,25.755-58.191,57.412v39.623c0,4.087,3.357,7.4,7.5,7.4   h366.654c4.143,0,7.5-3.313,7.5-7.4v-39.623C382.171,432.616,356.066,406.861,323.979,406.861z" data-original="#E0E0E0" class="" data-old_color="#E0E0E0"/>
	<path style="fill:#A37E0A" d="M330.753,327.157h-37.182c17.763,0,32.214,14.451,32.214,32.214s-14.451,32.214-32.214,32.214   h37.182c17.763,0,32.214-14.451,32.214-32.214S348.516,327.157,330.753,327.157z" data-original="#C4C4C4" class="" data-old_color="#C4C4C4"/>
	<path style="fill:#A37E0A" d="M323.979,406.861h-37.182c32.087,0,58.192,25.755,58.192,57.412v39.623c0,4.087-3.357,7.4-7.5,7.4   h37.182c4.143,0,7.5-3.313,7.5-7.4v-39.623C382.171,432.616,356.066,406.861,323.979,406.861z" data-original="#C4C4C4" class="" data-old_color="#C4C4C4"/>
	<path style="fill:#F7B081;" d="M316.633,107.798c-44.979,9.134-80.269,25.252-100.902,40.453   c12.41,2.974,23.949,8.168,34.193,15.134c4.409-2.153,8.95-3.979,13.596-5.436l25.531-8.01l11.398-6.854   c9.722-6.065,17.943-14.255,24.044-23.954C328.01,113.541,323.104,106.484,316.633,107.798z" data-original="#F7B081" class=""/>
</g></g> </svg>
