<svg width="309" height="49" viewBox="0 0 309 49" fill="none" xmlns="http://www.w3.org/2000/svg">
<path d="M215.484 15.8597C215.897 13.911 215.897 12.0867 215.402 10.5526C214.287 7.4015 211.273 5.57594 207.599 5.16258C204.956 4.91381 202.398 5.36989 200.003 6.57227C195.71 8.76848 194.884 13.2878 196.906 16.9791C197.65 18.3473 199.095 19.9229 200.457 21.0424C201.82 22.0374 202.769 22.6996 204.379 23.8617C205.864 25.0629 207.681 26.8884 206.897 29.0444C206.278 30.9931 204.916 32.3199 203.428 32.9418C200.581 34.31 197.155 33.6052 196.494 31.6552C195.916 30.0395 197.237 27.9664 200.416 26.764L196.617 22.8667C193.522 24.4007 192.159 27.925 192.613 30.9931C194.181 41.0268 216.351 37.8343 213.709 24.8983C213.378 23.2813 212.469 22.0789 211.273 21.0838C210.116 19.9643 208.589 19.0107 207.145 18.0144C205.824 17.1864 204.419 16.0657 203.76 15.2377C203.017 14.2841 202.893 14.1183 202.728 12.8317C202.563 11.5477 203.428 9.72335 204.668 8.89412C205.824 8.10635 207.186 7.73319 208.342 7.81486C211.479 8.27094 210.613 11.5891 209.911 13.372L215.484 15.8597ZM247.354 29.2103C245.992 33.1491 240.46 35.1807 241.161 31.9053C241.782 28.5469 241.822 28.4225 242.153 26.6397L242.813 22.9496C244.794 13.2049 237.363 13.6207 233.029 19.5497C232.657 13.8695 226.712 14.367 223.411 18.3473L223.947 15.528H218.25L214.121 36.2587H219.818L222.666 21.996C222.708 21.913 222.708 21.8716 222.749 21.8301C224.442 18.3473 228.611 15.7353 227.827 20.1302C227.001 24.6495 226.134 29.7895 224.978 36.2587H230.428C230.635 35.1807 232.533 24.2349 232.781 22.9496C232.823 22.7837 232.863 22.6996 232.906 22.6179C234.391 18.8034 238.85 15.2792 237.859 20.0058C237.198 23.6117 236.539 26.9286 235.96 30.1224C234.226 39.3683 245.663 38.1245 248.964 29.2103H247.354ZM258.089 28.92C256.684 32.9833 250.533 36.6733 251.482 31.698C252.432 26.8055 253.381 22.535 254.702 15.528H249.005L246.281 28.6713C243.969 40.2805 256.436 37.8757 259.698 28.92H258.089ZM252.638 13.2049C253.546 13.2049 254.331 12.9159 254.991 12.2927C255.652 11.6708 256.023 10.9257 256.023 9.97212C256.023 9.05996 255.693 8.31366 255.033 7.65027C254.413 7.02835 253.712 6.69666 252.762 6.69666C251.813 6.69666 251.069 7.02835 250.409 7.65027C249.79 8.31366 249.501 9.05996 249.459 9.97212C249.459 10.9257 249.748 11.6708 250.326 12.2927C250.946 12.9159 251.73 13.2049 252.638 13.2049ZM268.45 29.2919C267.17 33.1491 261.432 36.6733 262.341 31.9467C263.289 27.1787 265.973 14.2841 267.376 7.2344H261.803L257.468 29.003C255.282 40.0732 266.922 37.7928 270.018 29.2919H268.45ZM283.394 29.1273C281.454 32.3613 278.11 34.849 274.931 33.3564C273.156 32.4857 272.413 30.1639 272.373 28.1737C275.923 28.2981 279.39 27.0128 281.249 23.5715C282.486 21.1253 282.445 17.9729 280.341 16.2743C277.987 14.2841 272.619 15.3207 269.483 20.2131C265.642 26.3494 265.768 36.2587 273.57 36.5075C278.276 36.6319 281.66 35.0978 284.882 29.1273H283.394ZM272.538 25.769C272.992 23.4471 273.735 21.5813 274.601 20.2546C276.088 17.8913 277.905 17.1035 278.731 17.7254C279.761 18.5547 279.018 26.4311 272.495 26.225C272.495 26.1007 272.538 25.9348 272.538 25.769ZM301.187 22.535C301.519 21.2497 301.519 19.9229 301.105 18.9266C300.114 16.7718 297.761 15.5682 294.665 15.4036C292.518 15.1963 290.371 15.445 288.431 16.3157C284.839 17.7669 284.179 20.8338 285.913 23.1971C286.492 24.1934 287.729 25.3129 288.802 25.9348C289.836 26.7226 290.661 27.0543 292.106 27.8822C293.261 28.7542 294.748 29.9566 294.128 31.3663C293.591 32.6089 292.518 33.4393 291.198 34.0186C288.885 34.8905 286.12 34.4746 285.584 33.1077C285.047 31.9882 286.202 30.62 288.762 29.8322L285.706 27.2201C283.23 28.2981 281.991 30.5785 282.322 32.5674C283.559 39.3269 301.848 37.2123 299.702 28.5883C299.33 27.5518 298.669 26.764 297.761 26.0165C296.73 25.3129 295.49 24.5653 294.417 24.0276C293.18 23.3642 292.146 22.6594 291.445 22.0374C290.908 21.457 290.784 21.3326 290.661 20.4204C290.496 19.5912 291.198 18.3888 292.478 17.8498C293.22 17.2693 294.46 16.9791 295.368 17.145C297.843 17.3523 297.142 19.6327 296.522 20.8765L301.187 22.535ZM29.5026 15.8597C29.9155 13.911 29.9155 12.0867 29.4201 10.5526C28.3054 7.4015 25.2917 5.57594 21.6175 5.16258C18.9754 4.91381 16.4158 5.36989 14.0213 6.57227C9.72787 8.76848 8.90221 13.2878 10.9251 16.9791C11.6682 18.3473 13.1131 19.9229 14.4755 21.0424C15.8378 22.0374 16.7873 22.6996 18.3974 23.8617C19.8836 25.0629 21.7001 26.8884 20.9157 29.0444C20.2964 30.9931 18.9341 32.3199 17.4479 32.9418C14.5993 34.31 11.1728 33.6052 10.5123 31.6552C9.93429 30.0395 11.2554 27.9664 14.4342 26.764L10.6361 22.8667C7.53985 24.4007 6.1775 27.925 6.63162 30.9931C8.20039 41.0268 30.3696 37.8343 27.7274 24.8983C27.3972 23.2813 26.4889 22.0789 25.2917 21.0838C24.1358 19.9643 22.6083 19.0107 21.1634 18.0144C19.8423 17.1864 18.4387 16.0657 17.7781 15.2377C17.035 14.2841 16.9112 14.1183 16.7461 12.8317C16.5809 11.5477 17.4479 9.72335 18.6864 8.89412C19.8423 8.10635 21.2047 7.73319 22.3606 7.81486C25.4981 8.27094 24.6312 11.5891 23.9294 13.372L29.5026 15.8597ZM38.5024 16.7718L38.7501 15.528H32.9291L26.7779 46.6241H32.5989L34.9107 34.6832C35.819 35.677 38.3373 36.5075 40.0299 36.5075C41.6399 36.5075 43.0849 35.9685 44.1995 35.0563C45.2729 34.31 46.0573 33.315 46.6765 32.1113C47.9563 29.8322 48.5756 27.0543 48.6168 24.4007C48.6581 18.679 44.9426 12.4183 38.5024 16.7718ZM42.672 26.9713C42.3005 28.9615 41.5987 30.7858 40.7717 31.9467C39.4094 33.854 37.2226 34.7661 35.4061 32.3199L38.1309 18.8034C43.6628 15.0719 43.4151 22.991 42.672 26.9713ZM57.7818 20.0473L58.6487 15.528H52.9929L48.8233 36.2587H54.6442L56.9561 24.2763C59.0615 20.8338 62.1165 17.6425 65.4605 20.0887L69.2998 16.8962C63.8917 13.6622 60.3826 15.6938 57.7818 20.0473ZM83.6252 29.1273C81.6848 32.3613 78.3409 34.849 75.1621 33.3564C73.3869 32.4857 72.6438 30.1639 72.6025 28.1737C76.1529 28.2981 79.6207 27.0128 81.4784 23.5715C82.7169 21.1253 82.6756 17.9729 80.5702 16.2743C78.217 14.2841 72.8502 15.3207 69.7127 20.2131C65.8733 26.3494 65.9972 36.2587 73.7997 36.5075C78.506 36.6319 81.8913 35.0978 85.1114 29.1273H83.6252ZM72.7676 25.769C73.2217 23.4471 73.9649 21.5813 74.8318 20.2546C76.318 17.8913 78.1345 17.1035 78.9601 17.7254C79.9922 18.5547 79.2491 26.4311 72.7263 26.225C72.7263 26.1007 72.7676 25.9348 72.7676 25.769ZM108.189 29.1688C106.826 33.0649 100.799 36.6319 101.707 31.9053C102.657 27.1372 103.524 23.4471 104.804 17.1035L105.134 15.528H94.6891C87.2994 15.7767 84.038 22.452 83.46 29.1273C82.7169 37.7099 92.1295 38.9123 96.5056 32.3613C97.0423 39.4927 106.95 36.7977 109.799 29.1688H108.189ZM96.6294 29.6249C90.9323 37.3367 88.2076 33.4393 89.7764 25.9348C91.2213 19.218 96.0927 14.7402 98.611 19.3424L96.6294 29.6249ZM130.895 28.9615C129.532 32.9833 123.588 36.5904 124.537 31.7394C125.527 26.8884 127.88 14.8231 129.367 7.2344H123.753L121.771 17.0193C121.565 16.7718 121.399 16.5632 121.234 16.3987C117.684 13.4549 107.238 16.3987 106.166 28.9615C105.423 37.6684 114.794 38.8293 119.211 32.1955C119.748 39.5342 129.656 36.7977 132.505 28.9615H130.895ZM119.458 28.7542C119.418 28.9615 119.377 29.2517 119.377 29.459C113.638 37.2538 110.872 33.315 112.524 25.769C113.886 19.0107 118.799 14.5743 121.317 19.1351L119.458 28.7542ZM141.587 28.92C140.183 32.9833 134.032 36.6733 134.982 31.698C135.931 26.8055 136.881 22.535 138.201 15.528H132.503L129.779 28.6713C127.468 40.2805 139.934 37.8757 143.196 28.92H141.587ZM136.138 13.2049C137.046 13.2049 137.83 12.9159 138.49 12.2927C139.15 11.6708 139.522 10.9257 139.522 9.97212C139.522 9.05996 139.193 8.31366 138.532 7.65027C137.913 7.02835 137.21 6.69666 136.26 6.69666C135.311 6.69666 134.569 7.02835 133.907 7.65027C133.289 8.31366 132.999 9.05996 132.958 9.97212C132.958 10.9257 133.248 11.6708 133.826 12.2927C134.444 12.9159 135.228 13.2049 136.138 13.2049ZM164.499 29.003C163.178 33.0235 157.315 36.8807 158.223 31.7809C159.131 26.7226 158.885 28.2152 159.876 23.074C161.61 13.7439 153.766 13.5793 149.306 18.6376L149.925 15.528H144.269L140.1 36.2587H145.962L148.564 22.4922C150.09 18.679 155.665 15.2792 154.756 20.0473C154.22 22.9496 153.682 25.8519 153.104 28.7542C151.287 39.5757 162.475 38.5391 166.108 29.003H164.499ZM180.476 15.3207H174.696C173.828 15.3207 173.085 15.3621 172.301 15.4036C168.174 15.6096 162.683 19.3826 161.856 28.92C161.155 37.3367 169.99 38.7879 174.573 33.0235L172.673 42.2292L172.508 42.8926C171.392 43.556 169.866 43.3487 167.802 41.7731L164.004 45.7534C176.224 49.2777 179.031 40.6122 180.765 30.9517L183.943 15.3207C183.777 15.3207 180.641 15.3207 180.476 15.3207ZM175.273 29.459C169.576 37.2538 166.686 33.3564 168.339 25.6446C169.866 18.8034 174.861 14.2841 177.38 18.9693L175.273 29.459Z" fill="#FFD300"/>
</svg>
