<svg xmlns="http://www.w3.org/2000/svg" viewBox="0 0 247 79"><defs><style>.cls-1,.cls-2{fill:#bf2026;}.cls-2{stroke:#fff;stroke-miterlimit:10;opacity:0;}</style></defs><title>Asset 2</title><g id="Layer_2" data-name="Layer 2"><g id="Layer_1-2" data-name="Layer 1"><path class="cls-1" d="M17.16,30.42c.58-1.46,1.29-4.18-1.29-4.55a4.94,4.94,0,0,0-3,.88A3.8,3.8,0,0,0,11.25,30a2.86,2.86,0,0,0,.85,2,12.55,12.55,0,0,0,2.78,2.28,26.72,26.72,0,0,1,3.4,2.51,5.43,5.43,0,0,1,2,3.13c2.17,10.61-16.08,13.23-17.37,5a6.36,6.36,0,0,1,3.29-6.66L9.34,41.4c-2.62,1-3.7,2.69-3.23,4,.55,1.6,3.37,2.18,5.71,1.06a5.08,5.08,0,0,0,2.86-3.2c.65-1.77-.85-3.26-2.07-4.25s-2.11-1.49-3.23-2.31a12.64,12.64,0,0,1-2.93-3.33A6,6,0,0,1,9,24.85a11.41,11.41,0,0,1,6.26-1.16c3,.34,5.5,1.84,6.42,4.42a8.47,8.47,0,0,1,.07,4.35Z"/><path class="cls-1" d="M37.49,39.46a13.42,13.42,0,0,1-1.6,6.33,6.38,6.38,0,0,1-2,2.41,5.35,5.35,0,0,1-3.43,1.19,6.94,6.94,0,0,1-4.21-1.49L24.3,57.69H19.51l5.06-25.5h4.8l-.21,1C34.47,29.64,37.53,34.77,37.49,39.46Zm-8.63-4.59L26.61,46c1.5,2,3.3,1.26,4.42-.31a10.84,10.84,0,0,0,1.57-4.08C33.21,38.31,33.41,31.81,28.86,34.87Z"/><path class="cls-1" d="M54.53,33.31l-3.17,2.62c-2.75-2-5.27.61-7,3.43l-1.9,9.83h-4.8l3.44-17h4.65L45,35.89C47.18,32.32,50.07,30.66,54.53,33.31Z"/><path class="cls-1" d="M67.55,43.34c-2.65,4.9-5.44,6.15-9.32,6-6.42-.2-6.52-8.33-3.36-13.36,2.58-4,7-4.86,8.94-3.23,1.73,1.39,1.77,4,.75,6-1.53,2.83-4.39,3.88-7.31,3.78,0,1.63.64,3.53,2.1,4.25,2.62,1.22,5.38-.82,7-3.47ZM57.35,41c5.37.17,6-6.29,5.13-7-.68-.51-2.17.14-3.4,2.07a13.05,13.05,0,0,0-1.7,4.53C57.38,40.72,57.35,40.86,57.35,41Z"/><path class="cls-1" d="M87.88,43.37C85.53,49.63,77.37,51.84,76.93,46c-3.6,5.37-11.35,4.39-10.74-2.65.48-5.47,3.16-11,9.25-11.15H84l-.28,1.29c-1.05,5.2-1.76,8.23-2.54,12.14s4.21,1,5.33-2.25Zm-9.21-8c-2.08-3.78-6.09-.11-7.28,5.4-1.29,6.16,1,9.35,5.64,3Z"/><path class="cls-1" d="M106.58,43.2c-2.35,6.43-10.51,8.67-11,2.66C92,51.29,84.28,50.34,84.89,43.2c.88-10.3,9.48-12.71,12.41-10.3.13.14.27.31.44.51l1.63-8H104c-1.22,6.22-3.16,16.11-4,20.09s4.11,1,5.23-2.28Zm-9.21-8.05c-2.08-3.74-6.12-.11-7.25,5.44-1.36,6.18.92,9.41,5.65,3a3.8,3.8,0,0,1,.06-.58Z"/><path class="cls-1" d="M115.38,43.17c-2.68,7.34-12.95,9.32-11-.2l2.24-10.78h4.69c-1.09,5.74-1.87,9.25-2.65,13.26s4.28,1,5.44-2.28Zm-7.71-13.63a2.63,2.63,0,0,1-.72-1.91,2.86,2.86,0,0,1,.79-1.9,2.67,2.67,0,0,1,1.93-.78,2.47,2.47,0,0,1,1.87.78,2.55,2.55,0,0,1,.82,1.9,2.51,2.51,0,0,1-.85,1.91,2.74,2.74,0,0,1-1.94.75A2.58,2.58,0,0,1,107.67,29.54Z"/><path class="cls-1" d="M134.25,43.24c-3,7.82-12.2,8.67-10.71-.21.48-2.38.92-4.76,1.37-7.14.74-3.91-3.85-1.12-5.1,2l-2.15,11.29h-4.82l3.43-17h4.66l-.51,2.55c3.67-4.15,10.13-4,8.7,3.64-.82,4.21-.61,3-1.36,7.14s4.08,1,5.17-2.28Z"/><path class="cls-1" d="M148.94,32l-2.61,12.82c-1.43,7.92-3.75,15-13.81,12.13l3.13-3.26c1.7,1.29,3,1.46,3.88.92l.13-.55,1.57-7.54c-3.78,4.72-11,3.53-10.48-3.37.68-7.82,5.21-10.91,8.61-11.08.64,0,1.25-.07,2-.07h7.61Zm-5.4,3c-2.08-3.84-6.19-.14-7.45,5.47-1.36,6.33,1,9.52,5.71,3.13Z"/><path class="cls-1" d="M170.33,30.42c.58-1.46,1.29-4.18-1.29-4.55a4.9,4.9,0,0,0-3,.88,3.83,3.83,0,0,0-1.6,3.23,3,3,0,0,0,.85,2,12.63,12.63,0,0,0,2.79,2.28,26.72,26.72,0,0,1,3.4,2.51,5.48,5.48,0,0,1,2,3.13c2.17,10.61-16.08,13.23-17.38,5a6.39,6.39,0,0,1,3.3-6.66l3.13,3.19c-2.62,1-3.71,2.69-3.23,4,.54,1.6,3.37,2.18,5.71,1.06a5.11,5.11,0,0,0,2.86-3.2c.64-1.77-.85-3.26-2.08-4.25s-2.1-1.49-3.23-2.31a12.77,12.77,0,0,1-2.92-3.33,5.94,5.94,0,0,1,2.55-8.53,11.39,11.39,0,0,1,6.25-1.16c3,.34,5.51,1.84,6.43,4.42a8.47,8.47,0,0,1,.07,4.35Z"/><path class="cls-1" d="M202.49,43.41c-2.72,7.31-12.14,8.33-10.71.75.48-2.62,1-5.34,1.57-8.3.81-3.88-2.86-1-4.08,2.14a1.23,1.23,0,0,0-.11.27c-.2,1.06-1.76,10-1.93,10.92h-4.49c.95-5.31,1.66-9.52,2.34-13.23s-2.78-1.46-4.18,1.4c0,0,0,.06-.07.13l-2.34,11.7H173.8l3.4-17h4.69l-.44,2.31c2.72-3.26,7.61-3.67,7.92,1,3.57-4.86,9.69-5.2,8,2.78l-.54,3c-.27,1.46-.3,1.56-.81,4.32s4,1,5.1-2.21Z"/><path class="cls-1" d="M211.33,43.17c-2.68,7.34-13,9.32-11.05-.2l2.25-10.78h4.69c-1.09,5.74-1.87,9.25-2.65,13.26s4.28,1,5.44-2.28Zm-7.72-13.63a2.67,2.67,0,0,1-.71-1.91,2.8,2.8,0,0,1,.78-1.9,2.71,2.71,0,0,1,1.94-.78,2.49,2.49,0,0,1,1.87.78,2.59,2.59,0,0,1,.82,1.9,2.51,2.51,0,0,1-.85,1.91,2.74,2.74,0,0,1-1.94.75A2.62,2.62,0,0,1,203.61,29.54Z"/><path class="cls-1" d="M219.83,43.48c-2.55,7-12.14,8.83-10.33-.24l3.57-17.85h4.59c-1.16,5.78-3.37,16.35-4.15,20.26s4,1,5-2.17Z"/><path class="cls-1" d="M232.07,43.34c-2.65,4.9-5.44,6.15-9.31,6-6.43-.2-6.53-8.33-3.37-13.36,2.58-4,7-4.86,8.94-3.23,1.74,1.39,1.77,4,.75,6-1.53,2.83-4.39,3.88-7.31,3.78,0,1.63.65,3.53,2.11,4.25,2.62,1.22,5.37-.82,7-3.47ZM221.87,41c5.37.17,6-6.29,5.13-7-.67-.51-2.17.14-3.39,2.07a12.66,12.66,0,0,0-1.7,4.53C221.91,40.72,221.87,40.86,221.87,41Z"/><path class="cls-1" d="M241.66,36.57c.51-1,1.09-2.89-.95-3.06a3.36,3.36,0,0,0-2.38.58,2.19,2.19,0,0,0-1.5,2.11,1.8,1.8,0,0,0,.65,1.33,13.87,13.87,0,0,0,2.44,1.63,24.33,24.33,0,0,1,2.76,1.63,4.81,4.81,0,0,1,1.6,2.11C246,50,231,51.7,230,46.16a4.24,4.24,0,0,1,2.79-4.38l2.52,2.14c-2.11.64-3.06,1.77-2.62,2.68.44,1.13,2.72,1.47,4.62.75a4.33,4.33,0,0,0,2.42-2.17C240.2,44,239,43,238,42.32a22.56,22.56,0,0,1-2.72-1.6,7.32,7.32,0,0,1-2.38-2.24C231.49,36.54,232,34,235,32.83a10.15,10.15,0,0,1,5.13-.74c2.55.13,4.49,1.12,5.3,2.89a4.82,4.82,0,0,1,.07,3Z"/><rect class="cls-2" x="0.5" y="0.5" width="246" height="78"/></g></g></svg>