<svg width="69" height="59" viewBox="0 0 69 59" fill="none" xmlns="http://www.w3.org/2000/svg">
<path d="M46.9372 27.6609C47.9039 27.527 48.881 27.4591 49.8603 27.4587C59.6704 27.454 67.6264 34.2518 67.6286 42.6402C67.6302 51.0281 59.677 57.8287 49.8674 57.8273C40.0572 57.8255 32.1072 51.0225 32.1127 42.6342C32.1143 41.9735 32.1654 41.3137 32.266 40.6587C33.2763 34.0366 39.2335 28.7591 46.9372 27.6609V27.6609ZM50.1947 50.7873C58.4628 47.9191 61.2609 42.7532 60.3838 38.8849C59.771 36.2901 57.6135 34.6122 54.8159 34.6122C53.2706 34.6122 51.5725 35.1594 49.9163 36.1832C48.2318 35.112 46.5614 34.5643 44.9884 34.5643C42.1909 34.5643 40.0469 36.2427 39.4482 38.8849C38.5717 42.8011 41.397 47.9902 49.6379 50.7873C49.7227 50.8147 49.8119 50.8305 49.9022 50.8352C50.0022 50.8342 50.1012 50.818 50.1947 50.7873V50.7873Z" fill="#FA8731"/>
<path d="M60.3974 38.897C61.2744 42.7653 58.4769 47.9307 50.2083 50.7994C50.0397 50.8626 49.8478 50.8626 49.6792 50.7994C41.4253 48.0023 38.6131 42.8127 39.4901 38.897C40.0746 36.2548 42.2322 34.5764 45.0303 34.5764C46.6033 34.5764 48.2737 35.124 49.9576 36.1953C51.6002 35.1715 53.3125 34.6238 54.8578 34.6238C57.6276 34.6122 59.7851 36.3022 60.3974 38.897V38.897Z" fill="#FBD72B"/>
<path d="M46.9371 1.21394V27.6609C39.2307 28.7582 33.2686 34.0347 32.2519 40.6587H10.7182V1.21394H46.9371ZM40.8125 18.1869V7.46268H16.8428V18.1985H40.8125V18.1869Z" fill="#FBD72B"/>
<path d="M16.8428 7.46269H40.8125V18.1985H16.8428V7.46269Z" fill="#FA8731"/>
<path d="M34.4235 50.1326H6.97399C3.91872 50.1233 1.44471 48.0079 1.43384 45.3954V45.2053C1.55781 42.6653 4.00083 40.66 6.97399 40.6586H32.2519C32.1518 41.3137 32.1002 41.9735 32.0991 42.6342C32.0969 45.2643 32.8984 47.8489 34.4235 50.1326V50.1326Z" fill="#FA8731" fill-opacity="0.69"/>
<path d="M10.7182 1.21394V40.6587H6.97399C4.00083 40.6601 1.55727 42.6653 1.43384 45.2053V5.95118C1.43275 4.69446 2.01618 3.48934 3.05527 2.60085C4.09435 1.71236 5.50427 1.21348 6.97399 1.21394H10.7182Z" fill="#FA8731"/>
<path d="M42.1767 7.49849C42.1745 6.842 41.5525 6.31012 40.7847 6.30826H16.8428C16.0751 6.31012 15.453 6.842 15.4509 7.49849V18.2106C15.453 18.8671 16.0751 19.399 16.8428 19.4009H40.7847C41.5525 19.399 42.1745 18.8671 42.1767 18.2106V7.49849ZM18.2348 8.68873H39.3928V17.0204H18.2348V8.68873Z" fill="#CD3427"/>
<path d="M49.8467 26.2684C49.3454 26.2684 48.8582 26.2805 48.3014 26.3163V1.21395C48.3101 0.898256 48.1709 0.592328 47.9148 0.36451C47.6587 0.136226 47.3069 0.0051143 46.9372 0H6.97399C3.13411 0.0130182 0.022837 2.6678 0 5.95118V45.2053C0 45.2169 0.0277307 45.2411 0.0277307 45.2527V45.3954C0.0304494 46.9669 0.764497 48.4724 2.06784 49.5798C3.37118 50.6878 5.13616 51.3061 6.97399 51.2992H33.6302C37.1346 56.0787 43.2626 58.9864 49.8603 58.9999C60.4115 58.9999 68.9999 51.6683 68.9999 42.6342C68.9999 33.6005 60.3974 26.2684 49.8467 26.2684V26.2684ZM45.5175 26.685C41.8983 27.3875 38.6827 28.9822 36.0798 31.2795C33.509 33.5502 31.7679 36.4124 31.0687 39.5158H12.1101V2.38047H45.5175V26.685ZM6.97399 2.38047H9.32621V39.5158H6.97399C5.47327 39.5103 4.00899 39.9059 2.78394 40.6466V5.95118C2.80189 3.98078 4.66963 2.38931 6.97399 2.38047ZM4.03672 47.8949C3.25754 47.2342 2.82146 46.3337 2.82581 45.3954V45.2764C2.91118 43.3757 4.74901 41.8777 6.97399 41.8963H30.7484C30.7348 42.1344 30.7207 42.3845 30.7207 42.6463C30.7098 44.8008 31.2117 46.9353 32.1964 48.9187H6.97399C5.87401 48.9271 4.81644 48.5584 4.03672 47.8949ZM49.8603 56.6315C44.0455 56.6222 38.6712 53.9823 35.7318 49.6924C35.6856 49.5947 35.6247 49.5031 35.5507 49.4185C34.2099 47.3454 33.5057 45.0151 33.5046 42.6463C33.5019 42.0372 33.5481 41.4286 33.6438 40.8251C34.5872 34.7298 40.0692 29.8731 47.1601 28.8511C47.184 28.8544 47.2085 28.8502 47.2297 28.8395C48.0997 28.7205 48.9794 28.6605 49.8603 28.661C58.8934 28.661 66.2159 34.9223 66.2159 42.6463C66.2159 50.3702 58.8934 56.6315 49.8603 56.6315Z" fill="#CD3427"/>
<path d="M54.8295 33.4219C53.257 33.4219 51.5867 33.8743 49.944 34.7428C48.2873 33.8385 46.631 33.374 45.0025 33.374C41.5226 33.374 38.8083 35.4453 38.0981 38.659C37.1102 43.0507 40.1442 48.8355 49.1366 51.8943C49.1643 51.9064 49.1784 51.9064 49.2062 51.918C49.6645 52.0607 50.1675 52.0607 50.6259 51.918C50.6536 51.9064 50.6819 51.9064 50.7096 51.8943C59.7014 48.776 62.736 43.0033 61.7481 38.6706V38.659C61.0102 35.4811 58.2817 33.4219 54.8295 33.4219V33.4219ZM49.9299 49.597C42.6085 47.0264 40.0888 42.5035 40.8402 39.1113C41.2997 37.04 42.9004 35.7545 45.0025 35.7545C46.2689 35.7545 47.675 36.2306 49.0947 37.1354C49.5868 37.4427 50.2534 37.4473 50.7515 37.1474C52.1435 36.2785 53.5909 35.8024 54.8295 35.8024C56.9316 35.8024 58.5465 37.0758 59.0196 39.123C59.7852 42.4677 57.2519 46.9785 49.9299 49.597V49.597Z" fill="#CD3427"/>
</svg>
