<?xml version="1.0" encoding="UTF-8" standalone="no"?><!-- Generator: Gravit.io --><svg xmlns="http://www.w3.org/2000/svg" xmlns:xlink="http://www.w3.org/1999/xlink" style="isolation:isolate" viewBox="0 0 247 79" width="247pt" height="79pt"><defs><clipPath id="_clipPath_B2E04BsuY8VGUx5vweRPrd4Lc231Di9I"><rect width="247" height="79"/></clipPath></defs><g clip-path="url(#_clipPath_B2E04BsuY8VGUx5vweRPrd4Lc231Di9I)"><g opacity="0"><path d=" M 0 23 L 247 23 L 247 62 L 0 62 L 0 23 Z " fill="rgb(235,235,235)"/></g><path d=" M 172.248 35.623 C 172.578 34.072 172.578 32.62 172.182 31.399 C 171.291 28.891 168.882 27.438 165.945 27.109 C 163.832 26.911 161.787 27.274 159.873 28.231 C 156.441 29.979 155.781 33.576 157.397 36.514 C 157.992 37.603 159.147 38.857 160.236 39.748 C 161.325 40.54 162.084 41.067 163.371 41.992 C 164.558 42.948 166.01 44.401 165.384 46.117 C 164.889 47.668 163.8 48.724 162.611 49.219 C 160.335 50.308 157.596 49.747 157.068 48.195 C 156.606 46.909 157.662 45.259 160.203 44.302 L 157.166 41.2 C 154.692 42.421 153.603 45.226 153.966 47.668 C 155.219 55.654 172.941 53.113 170.829 42.817 C 170.564 41.53 169.838 40.573 168.882 39.781 C 167.957 38.89 166.736 38.131 165.582 37.338 C 164.526 36.679 163.403 35.787 162.876 35.128 C 162.282 34.369 162.183 34.237 162.051 33.213 C 161.919 32.191 162.611 30.739 163.602 30.079 C 164.526 29.452 165.615 29.155 166.539 29.22 C 169.046 29.583 168.354 32.224 167.793 33.643 L 172.248 35.623 Z  M 197.723 46.249 C 196.634 49.384 192.212 51.001 192.773 48.394 C 193.269 45.721 193.301 45.622 193.566 44.203 L 194.093 41.266 C 195.677 33.51 189.737 33.841 186.272 38.56 C 185.975 34.039 181.223 34.435 178.584 37.603 L 179.013 35.359 L 174.459 35.359 L 171.158 51.859 L 175.712 51.859 L 177.989 40.507 C 178.022 40.441 178.022 40.408 178.055 40.375 C 179.408 37.603 182.741 35.524 182.114 39.022 C 181.454 42.619 180.761 46.71 179.837 51.859 L 184.193 51.859 C 184.359 51.001 185.876 42.289 186.074 41.266 C 186.108 41.134 186.14 41.067 186.174 41.002 C 187.361 37.966 190.925 35.161 190.133 38.923 C 189.605 41.793 189.078 44.433 188.615 46.975 C 187.229 54.334 196.371 53.344 199.01 46.249 L 197.723 46.249 Z  M 206.304 46.018 C 205.181 49.252 200.264 52.189 201.023 48.229 C 201.782 44.335 202.541 40.936 203.597 35.359 L 199.043 35.359 L 196.865 45.82 C 195.017 55.06 204.983 53.146 207.59 46.018 L 206.304 46.018 Z  M 201.947 33.51 C 202.673 33.51 203.3 33.28 203.828 32.784 C 204.356 32.289 204.653 31.696 204.653 30.937 C 204.653 30.211 204.389 29.617 203.861 29.089 C 203.366 28.594 202.805 28.33 202.046 28.33 C 201.287 28.33 200.693 28.594 200.165 29.089 C 199.67 29.617 199.439 30.211 199.406 30.937 C 199.406 31.696 199.637 32.289 200.099 32.784 C 200.594 33.28 201.221 33.51 201.947 33.51 Z  M 214.586 46.314 C 213.563 49.384 208.976 52.189 209.703 48.427 C 210.461 44.632 212.606 34.369 213.728 28.758 L 209.273 28.758 L 205.808 46.084 C 204.06 54.895 213.365 53.08 215.84 46.314 L 214.586 46.314 Z  M 226.532 46.183 C 224.981 48.757 222.308 50.737 219.767 49.549 C 218.348 48.856 217.754 47.008 217.722 45.424 C 220.56 45.523 223.331 44.5 224.817 41.761 C 225.806 39.814 225.773 37.305 224.091 35.953 C 222.21 34.369 217.919 35.194 215.412 39.088 C 212.342 43.972 212.442 51.859 218.679 52.057 C 222.441 52.156 225.146 50.935 227.721 46.183 L 226.532 46.183 Z  M 217.854 43.51 C 218.217 41.662 218.811 40.177 219.503 39.121 C 220.692 37.24 222.144 36.613 222.804 37.108 C 223.628 37.768 223.034 44.037 217.82 43.873 C 217.82 43.774 217.854 43.642 217.854 43.51 Z  M 240.755 40.936 C 241.02 39.913 241.02 38.857 240.689 38.064 C 239.897 36.349 238.016 35.391 235.541 35.26 C 233.825 35.095 232.109 35.293 230.558 35.986 C 227.687 37.141 227.159 39.582 228.545 41.463 C 229.008 42.256 229.997 43.147 230.855 43.642 C 231.681 44.269 232.341 44.533 233.496 45.192 C 234.419 45.886 235.608 46.843 235.112 47.965 C 234.683 48.954 233.825 49.615 232.77 50.076 C 230.921 50.77 228.711 50.439 228.282 49.351 C 227.853 48.46 228.776 47.371 230.823 46.744 L 228.38 44.665 C 226.401 45.523 225.41 47.338 225.675 48.921 C 226.664 54.301 241.283 52.618 239.568 45.754 C 239.27 44.929 238.742 44.302 238.016 43.707 C 237.192 43.147 236.201 42.552 235.343 42.124 C 234.354 41.596 233.528 41.035 232.967 40.54 C 232.538 40.078 232.439 39.979 232.341 39.253 C 232.209 38.593 232.77 37.636 233.793 37.207 C 234.386 36.745 235.377 36.514 236.103 36.646 C 238.082 36.811 237.521 38.626 237.026 39.616 L 240.755 40.936 Z  M 23.583 35.623 C 23.913 34.072 23.913 32.62 23.517 31.399 C 22.626 28.891 20.217 27.438 17.28 27.109 C 15.168 26.911 13.122 27.274 11.208 28.231 C 7.776 29.979 7.116 33.576 8.733 36.514 C 9.327 37.603 10.482 38.857 11.571 39.748 C 12.66 40.54 13.419 41.067 14.706 41.992 C 15.894 42.948 17.346 44.401 16.719 46.117 C 16.224 47.668 15.135 48.724 13.947 49.219 C 11.67 50.308 8.931 49.747 8.403 48.195 C 7.941 46.909 8.997 45.259 11.538 44.302 L 8.502 41.2 C 6.027 42.421 4.938 45.226 5.301 47.668 C 6.555 55.654 24.276 53.113 22.164 42.817 C 21.9 41.53 21.174 40.573 20.217 39.781 C 19.293 38.89 18.072 38.131 16.917 37.338 C 15.861 36.679 14.739 35.787 14.211 35.128 C 13.617 34.369 13.518 34.237 13.386 33.213 C 13.254 32.191 13.947 30.739 14.937 30.079 C 15.861 29.452 16.95 29.155 17.874 29.22 C 20.382 29.583 19.689 32.224 19.128 33.643 L 23.583 35.623 Z  M 30.777 36.349 L 30.975 35.359 L 26.322 35.359 L 21.405 60.109 L 26.058 60.109 L 27.906 50.605 C 28.632 51.396 30.645 52.057 31.998 52.057 C 33.285 52.057 34.44 51.628 35.331 50.902 C 36.189 50.308 36.816 49.516 37.311 48.558 C 38.334 46.744 38.829 44.533 38.862 42.421 C 38.895 37.867 35.925 32.884 30.777 36.349 Z  M 34.11 44.467 C 33.813 46.051 33.252 47.503 32.591 48.427 C 31.502 49.945 29.754 50.671 28.302 48.724 L 30.48 37.966 C 34.902 34.996 34.704 41.299 34.11 44.467 Z  M 46.188 38.956 L 46.881 35.359 L 42.36 35.359 L 39.027 51.859 L 43.68 51.859 L 45.528 42.322 C 47.211 39.582 49.653 37.042 52.326 38.989 L 55.395 36.448 C 51.072 33.874 48.267 35.491 46.188 38.956 Z  M 66.846 46.183 C 65.295 48.757 62.622 50.737 60.081 49.549 C 58.662 48.856 58.068 47.008 58.035 45.424 C 60.873 45.523 63.645 44.5 65.13 41.761 C 66.12 39.814 66.087 37.305 64.404 35.953 C 62.523 34.369 58.233 35.194 55.725 39.088 C 52.656 43.972 52.755 51.859 58.992 52.057 C 62.754 52.156 65.46 50.935 68.034 46.183 L 66.846 46.183 Z  M 58.167 43.51 C 58.53 41.662 59.124 40.177 59.817 39.121 C 61.005 37.24 62.457 36.613 63.117 37.108 C 63.942 37.768 63.348 44.037 58.134 43.873 C 58.134 43.774 58.167 43.642 58.167 43.51 Z  M 86.481 46.216 C 85.392 49.317 80.574 52.156 81.3 48.394 C 82.059 44.599 82.752 41.662 83.775 36.613 L 84.039 35.359 L 75.69 35.359 C 69.783 35.557 67.176 40.87 66.714 46.183 C 66.12 53.014 73.644 53.971 77.142 48.757 C 77.571 54.433 85.491 52.288 87.768 46.216 L 86.481 46.216 Z  M 77.241 46.579 C 72.687 52.717 70.509 49.615 71.763 43.642 C 72.918 38.296 76.812 34.732 78.825 38.395 L 77.241 46.579 Z  M 104.631 46.051 C 103.542 49.252 98.79 52.123 99.549 48.262 C 100.34 44.401 102.221 34.798 103.41 28.758 L 98.922 28.758 L 97.338 36.546 C 97.173 36.349 97.041 36.183 96.909 36.052 C 94.071 33.709 85.721 36.052 84.864 46.051 C 84.27 52.981 91.761 53.905 95.292 48.625 C 95.721 54.466 103.641 52.288 105.918 46.051 L 104.631 46.051 Z  M 95.489 45.886 C 95.457 46.051 95.424 46.282 95.424 46.447 C 90.837 52.651 88.626 49.516 89.946 43.51 C 91.035 38.131 94.962 34.6 96.975 38.23 L 95.489 45.886 Z  M 113.178 46.018 C 112.056 49.252 107.139 52.189 107.898 48.229 C 108.657 44.335 109.416 40.936 110.471 35.359 L 105.917 35.359 L 103.739 45.82 C 101.892 55.06 111.857 53.146 114.464 46.018 L 113.178 46.018 Z  M 108.822 33.51 C 109.548 33.51 110.175 33.28 110.702 32.784 C 111.23 32.289 111.527 31.696 111.527 30.937 C 111.527 30.211 111.264 29.617 110.736 29.089 C 110.241 28.594 109.679 28.33 108.92 28.33 C 108.161 28.33 107.568 28.594 107.039 29.089 C 106.545 29.617 106.313 30.211 106.28 30.937 C 106.28 31.696 106.512 32.289 106.974 32.784 C 107.468 33.28 108.095 33.51 108.822 33.51 Z  M 131.493 46.084 C 130.437 49.284 125.75 52.354 126.476 48.295 C 127.202 44.269 127.005 45.457 127.797 41.365 C 129.183 33.939 122.913 33.808 119.348 37.834 L 119.843 35.359 L 115.322 35.359 L 111.989 51.859 L 116.675 51.859 L 118.755 40.902 C 119.975 37.867 124.431 35.161 123.705 38.956 C 123.276 41.266 122.846 43.576 122.384 45.886 C 120.932 54.499 129.875 53.674 132.779 46.084 L 131.493 46.084 Z  M 144.264 35.194 L 139.644 35.194 C 138.95 35.194 138.356 35.227 137.729 35.26 C 134.43 35.424 130.041 38.427 129.38 46.018 C 128.82 52.717 135.882 53.872 139.545 49.284 L 138.027 56.611 L 137.895 57.139 C 137.003 57.667 135.783 57.502 134.133 56.248 L 131.097 59.416 C 140.865 62.221 143.109 55.324 144.495 47.635 L 147.035 35.194 C 146.903 35.194 144.396 35.194 144.264 35.194 Z  M 140.105 46.447 C 135.551 52.651 133.241 49.549 134.562 43.411 C 135.783 37.966 139.776 34.369 141.789 38.098 L 140.105 46.447 Z " fill="rgb(189,53,56)"/></g></svg>