<svg width="312" height="49" viewBox="0 0 312 49" fill="none" xmlns="http://www.w3.org/2000/svg">
<path d="M218.484 15.8597C218.897 13.911 218.897 12.0867 218.402 10.5526C217.287 7.4015 214.273 5.57594 210.599 5.16258C207.956 4.91381 205.398 5.36989 203.003 6.57227C198.71 8.76848 197.884 13.2878 199.906 16.9791C200.65 18.3473 202.095 19.9229 203.457 21.0424C204.82 22.0374 205.769 22.6996 207.379 23.8617C208.864 25.0629 210.681 26.8884 209.897 29.0444C209.278 30.9931 207.916 32.3199 206.428 32.9418C203.581 34.31 200.155 33.6052 199.494 31.6552C198.916 30.0395 200.237 27.9664 203.416 26.764L199.617 22.8667C196.522 24.4007 195.159 27.925 195.613 30.9931C197.181 41.0268 219.351 37.8343 216.709 24.8983C216.378 23.2813 215.469 22.0789 214.273 21.0838C213.116 19.9643 211.589 19.0107 210.145 18.0144C208.824 17.1864 207.419 16.0657 206.76 15.2377C206.017 14.2841 205.893 14.1183 205.728 12.8317C205.563 11.5477 206.428 9.72335 207.668 8.89412C208.824 8.10635 210.186 7.73319 211.342 7.81486C214.479 8.27094 213.613 11.5891 212.911 13.372L218.484 15.8597ZM250.354 29.2103C248.992 33.1491 243.46 35.1807 244.161 31.9053C244.782 28.5469 244.822 28.4225 245.153 26.6397L245.813 22.9496C247.794 13.2049 240.363 13.6207 236.029 19.5497C235.657 13.8695 229.712 14.367 226.411 18.3473L226.947 15.528H221.25L217.121 36.2587H222.818L225.666 21.996C225.708 21.913 225.708 21.8716 225.749 21.8301C227.442 18.3473 231.611 15.7353 230.827 20.1302C230.001 24.6495 229.134 29.7895 227.978 36.2587H233.428C233.635 35.1807 235.533 24.2349 235.781 22.9496C235.823 22.7837 235.863 22.6996 235.906 22.6179C237.391 18.8034 241.85 15.2792 240.859 20.0058C240.198 23.6117 239.539 26.9286 238.96 30.1224C237.226 39.3683 248.663 38.1245 251.964 29.2103H250.354ZM261.089 28.92C259.684 32.9833 253.533 36.6733 254.482 31.698C255.432 26.8055 256.381 22.535 257.702 15.528H252.005L249.281 28.6713C246.969 40.2805 259.436 37.8757 262.698 28.92H261.089ZM255.638 13.2049C256.546 13.2049 257.331 12.9159 257.991 12.2927C258.652 11.6708 259.023 10.9257 259.023 9.97212C259.023 9.05996 258.693 8.31366 258.033 7.65027C257.413 7.02835 256.712 6.69666 255.762 6.69666C254.813 6.69666 254.069 7.02835 253.409 7.65027C252.79 8.31366 252.501 9.05996 252.459 9.97212C252.459 10.9257 252.748 11.6708 253.326 12.2927C253.946 12.9159 254.73 13.2049 255.638 13.2049ZM271.45 29.2919C270.17 33.1491 264.432 36.6733 265.341 31.9467C266.289 27.1787 268.973 14.2841 270.376 7.2344H264.803L260.468 29.003C258.282 40.0732 269.922 37.7928 273.018 29.2919H271.45ZM286.394 29.1273C284.454 32.3613 281.11 34.849 277.931 33.3564C276.156 32.4857 275.413 30.1639 275.373 28.1737C278.923 28.2981 282.39 27.0128 284.249 23.5715C285.486 21.1253 285.445 17.9729 283.341 16.2743C280.987 14.2841 275.619 15.3207 272.483 20.2131C268.642 26.3494 268.768 36.2587 276.57 36.5075C281.276 36.6319 284.66 35.0978 287.882 29.1273H286.394ZM275.538 25.769C275.992 23.4471 276.735 21.5813 277.601 20.2546C279.088 17.8913 280.905 17.1035 281.731 17.7254C282.761 18.5547 282.018 26.4311 275.495 26.225C275.495 26.1007 275.538 25.9348 275.538 25.769ZM304.187 22.535C304.519 21.2497 304.519 19.9229 304.105 18.9266C303.114 16.7718 300.761 15.5682 297.665 15.4036C295.518 15.1963 293.371 15.445 291.431 16.3157C287.839 17.7669 287.179 20.8338 288.913 23.1971C289.492 24.1934 290.729 25.3129 291.802 25.9348C292.836 26.7226 293.661 27.0543 295.106 27.8822C296.261 28.7542 297.748 29.9566 297.128 31.3663C296.591 32.6089 295.518 33.4393 294.198 34.0186C291.885 34.8905 289.12 34.4746 288.584 33.1077C288.047 31.9882 289.202 30.62 291.762 29.8322L288.706 27.2201C286.23 28.2981 284.991 30.5785 285.322 32.5674C286.559 39.3269 304.848 37.2123 302.702 28.5883C302.33 27.5518 301.669 26.764 300.761 26.0165C299.73 25.3129 298.49 24.5653 297.417 24.0276C296.18 23.3642 295.146 22.6594 294.445 22.0374C293.908 21.457 293.784 21.3326 293.661 20.4204C293.496 19.5912 294.198 18.3888 295.478 17.8498C296.22 17.2693 297.46 16.9791 298.368 17.145C300.843 17.3523 300.142 19.6327 299.522 20.8765L304.187 22.535ZM32.5026 15.8597C32.9155 13.911 32.9155 12.0867 32.4201 10.5526C31.3054 7.4015 28.2917 5.57594 24.6175 5.16258C21.9754 4.91381 19.4158 5.36989 17.0213 6.57227C12.7279 8.76848 11.9022 13.2878 13.9251 16.9791C14.6682 18.3473 16.1131 19.9229 17.4755 21.0424C18.8378 22.0374 19.7873 22.6996 21.3974 23.8617C22.8836 25.0629 24.7001 26.8884 23.9157 29.0444C23.2964 30.9931 21.9341 32.3199 20.4479 32.9418C17.5993 34.31 14.1728 33.6052 13.5123 31.6552C12.9343 30.0395 14.2554 27.9664 17.4342 26.764L13.6361 22.8667C10.5399 24.4007 9.1775 27.925 9.63162 30.9931C11.2004 41.0268 33.3696 37.8343 30.7274 24.8983C30.3972 23.2813 29.4889 22.0789 28.2917 21.0838C27.1358 19.9643 25.6083 19.0107 24.1634 18.0144C22.8423 17.1864 21.4387 16.0657 20.7781 15.2377C20.035 14.2841 19.9112 14.1183 19.7461 12.8317C19.5809 11.5477 20.4479 9.72335 21.6864 8.89412C22.8423 8.10635 24.2047 7.73319 25.3606 7.81486C28.4981 8.27094 27.6312 11.5891 26.9294 13.372L32.5026 15.8597ZM41.5024 16.7718L41.7501 15.528H35.9291L29.7779 46.6241H35.5989L37.9107 34.6832C38.819 35.677 41.3373 36.5075 43.0299 36.5075C44.6399 36.5075 46.0849 35.9685 47.1995 35.0563C48.2729 34.31 49.0573 33.315 49.6765 32.1113C50.9563 29.8322 51.5756 27.0543 51.6168 24.4007C51.6581 18.679 47.9426 12.4183 41.5024 16.7718ZM45.672 26.9713C45.3005 28.9615 44.5987 30.7858 43.7717 31.9467C42.4094 33.854 40.2226 34.7661 38.4061 32.3199L41.1309 18.8034C46.6628 15.0719 46.4151 22.991 45.672 26.9713ZM60.7818 20.0473L61.6487 15.528H55.9929L51.8233 36.2587H57.6442L59.9561 24.2763C62.0615 20.8338 65.1165 17.6425 68.4605 20.0887L72.2998 16.8962C66.8917 13.6622 63.3826 15.6938 60.7818 20.0473ZM86.6252 29.1273C84.6848 32.3613 81.3409 34.849 78.1621 33.3564C76.3869 32.4857 75.6438 30.1639 75.6025 28.1737C79.1529 28.2981 82.6207 27.0128 84.4784 23.5715C85.7169 21.1253 85.6756 17.9729 83.5702 16.2743C81.217 14.2841 75.8502 15.3207 72.7127 20.2131C68.8733 26.3494 68.9972 36.2587 76.7997 36.5075C81.506 36.6319 84.8913 35.0978 88.1114 29.1273H86.6252ZM75.7676 25.769C76.2217 23.4471 76.9649 21.5813 77.8318 20.2546C79.318 17.8913 81.1345 17.1035 81.9601 17.7254C82.9922 18.5547 82.2491 26.4311 75.7263 26.225C75.7263 26.1007 75.7676 25.9348 75.7676 25.769ZM111.189 29.1688C109.826 33.0649 103.799 36.6319 104.707 31.9053C105.657 27.1372 106.524 23.4471 107.804 17.1035L108.134 15.528H97.6891C90.2994 15.7767 87.038 22.452 86.46 29.1273C85.7169 37.7099 95.1295 38.9123 99.5056 32.3613C100.042 39.4927 109.95 36.7977 112.799 29.1688H111.189ZM99.6294 29.6249C93.9323 37.3367 91.2076 33.4393 92.7764 25.9348C94.2213 19.218 99.0927 14.7402 101.611 19.3424L99.6294 29.6249ZM133.895 28.9615C132.532 32.9833 126.588 36.5904 127.537 31.7394C128.527 26.8884 130.88 14.8231 132.367 7.2344H126.753L124.771 17.0193C124.565 16.7718 124.399 16.5632 124.234 16.3987C120.684 13.4549 110.238 16.3987 109.166 28.9615C108.423 37.6684 117.794 38.8293 122.211 32.1955C122.748 39.5342 132.656 36.7977 135.505 28.9615H133.895ZM122.458 28.7542C122.418 28.9615 122.377 29.2517 122.377 29.459C116.638 37.2538 113.872 33.315 115.524 25.769C116.886 19.0107 121.799 14.5743 124.317 19.1351L122.458 28.7542ZM144.587 28.92C143.183 32.9833 137.032 36.6733 137.982 31.698C138.931 26.8055 139.881 22.535 141.201 15.528H135.503L132.779 28.6713C130.468 40.2805 142.934 37.8757 146.196 28.92H144.587ZM139.138 13.2049C140.046 13.2049 140.83 12.9159 141.49 12.2927C142.15 11.6708 142.522 10.9257 142.522 9.97212C142.522 9.05996 142.193 8.31366 141.532 7.65027C140.913 7.02835 140.21 6.69666 139.26 6.69666C138.311 6.69666 137.569 7.02835 136.907 7.65027C136.289 8.31366 135.999 9.05996 135.958 9.97212C135.958 10.9257 136.248 11.6708 136.826 12.2927C137.444 12.9159 138.228 13.2049 139.138 13.2049ZM167.499 29.003C166.178 33.0235 160.315 36.8807 161.223 31.7809C162.131 26.7226 161.885 28.2152 162.876 23.074C164.61 13.7439 156.766 13.5793 152.306 18.6376L152.925 15.528H147.269L143.1 36.2587H148.962L151.564 22.4922C153.09 18.679 158.665 15.2792 157.756 20.0473C157.22 22.9496 156.682 25.8519 156.104 28.7542C154.287 39.5757 165.475 38.5391 169.108 29.003H167.499ZM183.476 15.3207H177.696C176.828 15.3207 176.085 15.3621 175.301 15.4036C171.174 15.6096 165.683 19.3826 164.856 28.92C164.155 37.3367 172.99 38.7879 177.573 33.0235L175.673 42.2292L175.508 42.8926C174.392 43.556 172.866 43.3487 170.802 41.7731L167.004 45.7534C179.224 49.2777 182.031 40.6122 183.765 30.9517L186.943 15.3207C186.777 15.3207 183.641 15.3207 183.476 15.3207ZM178.273 29.459C172.576 37.2538 169.686 33.3564 171.339 25.6446C172.866 18.8034 177.861 14.2841 180.38 18.9693L178.273 29.459Z" fill="#323656"/>
<path d="M215.484 15.8597C215.897 13.911 215.897 12.0867 215.402 10.5526C214.287 7.4015 211.273 5.57594 207.599 5.16258C204.956 4.91381 202.398 5.36989 200.003 6.57227C195.71 8.76848 194.884 13.2878 196.906 16.9791C197.65 18.3473 199.095 19.9229 200.457 21.0424C201.82 22.0374 202.769 22.6996 204.379 23.8617C205.864 25.0629 207.681 26.8884 206.897 29.0444C206.278 30.9931 204.916 32.3199 203.428 32.9418C200.581 34.31 197.155 33.6052 196.494 31.6552C195.916 30.0395 197.237 27.9664 200.416 26.764L196.617 22.8667C193.522 24.4007 192.159 27.925 192.613 30.9931C194.181 41.0268 216.351 37.8343 213.709 24.8983C213.378 23.2813 212.469 22.0789 211.273 21.0838C210.116 19.9643 208.589 19.0107 207.145 18.0144C205.824 17.1864 204.419 16.0657 203.76 15.2377C203.017 14.2841 202.893 14.1183 202.728 12.8317C202.563 11.5477 203.428 9.72335 204.668 8.89412C205.824 8.10635 207.186 7.73319 208.342 7.81486C211.479 8.27094 210.613 11.5891 209.911 13.372L215.484 15.8597ZM247.354 29.2103C245.992 33.1491 240.46 35.1807 241.161 31.9053C241.782 28.5469 241.822 28.4225 242.153 26.6397L242.813 22.9496C244.794 13.2049 237.363 13.6207 233.029 19.5497C232.657 13.8695 226.712 14.367 223.411 18.3473L223.947 15.528H218.25L214.121 36.2587H219.818L222.666 21.996C222.708 21.913 222.708 21.8716 222.749 21.8301C224.442 18.3473 228.611 15.7353 227.827 20.1302C227.001 24.6495 226.134 29.7895 224.978 36.2587H230.428C230.635 35.1807 232.533 24.2349 232.781 22.9496C232.823 22.7837 232.863 22.6996 232.906 22.6179C234.391 18.8034 238.85 15.2792 237.859 20.0058C237.198 23.6117 236.539 26.9286 235.96 30.1224C234.226 39.3683 245.663 38.1245 248.964 29.2103H247.354ZM258.089 28.92C256.684 32.9833 250.533 36.6733 251.482 31.698C252.432 26.8055 253.381 22.535 254.702 15.528H249.005L246.281 28.6713C243.969 40.2805 256.436 37.8757 259.698 28.92H258.089ZM252.638 13.2049C253.546 13.2049 254.331 12.9159 254.991 12.2927C255.652 11.6708 256.023 10.9257 256.023 9.97212C256.023 9.05996 255.693 8.31366 255.033 7.65027C254.413 7.02835 253.712 6.69666 252.762 6.69666C251.813 6.69666 251.069 7.02835 250.409 7.65027C249.79 8.31366 249.501 9.05996 249.459 9.97212C249.459 10.9257 249.748 11.6708 250.326 12.2927C250.946 12.9159 251.73 13.2049 252.638 13.2049ZM268.45 29.2919C267.17 33.1491 261.432 36.6733 262.341 31.9467C263.289 27.1787 265.973 14.2841 267.376 7.2344H261.803L257.468 29.003C255.282 40.0732 266.922 37.7928 270.018 29.2919H268.45ZM283.394 29.1273C281.454 32.3613 278.11 34.849 274.931 33.3564C273.156 32.4857 272.413 30.1639 272.373 28.1737C275.923 28.2981 279.39 27.0128 281.249 23.5715C282.486 21.1253 282.445 17.9729 280.341 16.2743C277.987 14.2841 272.619 15.3207 269.483 20.2131C265.642 26.3494 265.768 36.2587 273.57 36.5075C278.276 36.6319 281.66 35.0978 284.882 29.1273H283.394ZM272.538 25.769C272.992 23.4471 273.735 21.5813 274.601 20.2546C276.088 17.8913 277.905 17.1035 278.731 17.7254C279.761 18.5547 279.018 26.4311 272.495 26.225C272.495 26.1007 272.538 25.9348 272.538 25.769ZM301.187 22.535C301.519 21.2497 301.519 19.9229 301.105 18.9266C300.114 16.7718 297.761 15.5682 294.665 15.4036C292.518 15.1963 290.371 15.445 288.431 16.3157C284.839 17.7669 284.179 20.8338 285.913 23.1971C286.492 24.1934 287.729 25.3129 288.802 25.9348C289.836 26.7226 290.661 27.0543 292.106 27.8822C293.261 28.7542 294.748 29.9566 294.128 31.3663C293.591 32.6089 292.518 33.4393 291.198 34.0186C288.885 34.8905 286.12 34.4746 285.584 33.1077C285.047 31.9882 286.202 30.62 288.762 29.8322L285.706 27.2201C283.23 28.2981 281.991 30.5785 282.322 32.5674C283.559 39.3269 301.848 37.2123 299.702 28.5883C299.33 27.5518 298.669 26.764 297.761 26.0165C296.73 25.3129 295.49 24.5653 294.417 24.0276C293.18 23.3642 292.146 22.6594 291.445 22.0374C290.908 21.457 290.784 21.3326 290.661 20.4204C290.496 19.5912 291.198 18.3888 292.478 17.8498C293.22 17.2693 294.46 16.9791 295.368 17.145C297.843 17.3523 297.142 19.6327 296.522 20.8765L301.187 22.535ZM29.5026 15.8597C29.9155 13.911 29.9155 12.0867 29.4201 10.5526C28.3054 7.4015 25.2917 5.57594 21.6175 5.16258C18.9754 4.91381 16.4158 5.36989 14.0213 6.57227C9.72787 8.76848 8.90221 13.2878 10.9251 16.9791C11.6682 18.3473 13.1131 19.9229 14.4755 21.0424C15.8378 22.0374 16.7873 22.6996 18.3974 23.8617C19.8836 25.0629 21.7001 26.8884 20.9157 29.0444C20.2964 30.9931 18.9341 32.3199 17.4479 32.9418C14.5993 34.31 11.1728 33.6052 10.5123 31.6552C9.93429 30.0395 11.2554 27.9664 14.4342 26.764L10.6361 22.8667C7.53985 24.4007 6.1775 27.925 6.63162 30.9931C8.20039 41.0268 30.3696 37.8343 27.7274 24.8983C27.3972 23.2813 26.4889 22.0789 25.2917 21.0838C24.1358 19.9643 22.6083 19.0107 21.1634 18.0144C19.8423 17.1864 18.4387 16.0657 17.7781 15.2377C17.035 14.2841 16.9112 14.1183 16.7461 12.8317C16.5809 11.5477 17.4479 9.72335 18.6864 8.89412C19.8423 8.10635 21.2047 7.73319 22.3606 7.81486C25.4981 8.27094 24.6312 11.5891 23.9294 13.372L29.5026 15.8597ZM38.5024 16.7718L38.7501 15.528H32.9291L26.7779 46.6241H32.5989L34.9107 34.6832C35.819 35.677 38.3373 36.5075 40.0299 36.5075C41.6399 36.5075 43.0849 35.9685 44.1995 35.0563C45.2729 34.31 46.0573 33.315 46.6765 32.1113C47.9563 29.8322 48.5756 27.0543 48.6168 24.4007C48.6581 18.679 44.9426 12.4183 38.5024 16.7718ZM42.672 26.9713C42.3005 28.9615 41.5987 30.7858 40.7717 31.9467C39.4094 33.854 37.2226 34.7661 35.4061 32.3199L38.1309 18.8034C43.6628 15.0719 43.4151 22.991 42.672 26.9713ZM57.7818 20.0473L58.6487 15.528H52.9929L48.8233 36.2587H54.6442L56.9561 24.2763C59.0615 20.8338 62.1165 17.6425 65.4605 20.0887L69.2998 16.8962C63.8917 13.6622 60.3826 15.6938 57.7818 20.0473ZM83.6252 29.1273C81.6848 32.3613 78.3409 34.849 75.1621 33.3564C73.3869 32.4857 72.6438 30.1639 72.6025 28.1737C76.1529 28.2981 79.6207 27.0128 81.4784 23.5715C82.7169 21.1253 82.6756 17.9729 80.5702 16.2743C78.217 14.2841 72.8502 15.3207 69.7127 20.2131C65.8733 26.3494 65.9972 36.2587 73.7997 36.5075C78.506 36.6319 81.8913 35.0978 85.1114 29.1273H83.6252ZM72.7676 25.769C73.2217 23.4471 73.9649 21.5813 74.8318 20.2546C76.318 17.8913 78.1345 17.1035 78.9601 17.7254C79.9922 18.5547 79.2491 26.4311 72.7263 26.225C72.7263 26.1007 72.7676 25.9348 72.7676 25.769ZM108.189 29.1688C106.826 33.0649 100.799 36.6319 101.707 31.9053C102.657 27.1372 103.524 23.4471 104.804 17.1035L105.134 15.528H94.6891C87.2994 15.7767 84.038 22.452 83.46 29.1273C82.7169 37.7099 92.1295 38.9123 96.5056 32.3613C97.0423 39.4927 106.95 36.7977 109.799 29.1688H108.189ZM96.6294 29.6249C90.9323 37.3367 88.2076 33.4393 89.7764 25.9348C91.2213 19.218 96.0927 14.7402 98.611 19.3424L96.6294 29.6249ZM130.895 28.9615C129.532 32.9833 123.588 36.5904 124.537 31.7394C125.527 26.8884 127.88 14.8231 129.367 7.2344H123.753L121.771 17.0193C121.565 16.7718 121.399 16.5632 121.234 16.3987C117.684 13.4549 107.238 16.3987 106.166 28.9615C105.423 37.6684 114.794 38.8293 119.211 32.1955C119.748 39.5342 129.656 36.7977 132.505 28.9615H130.895ZM119.458 28.7542C119.418 28.9615 119.377 29.2517 119.377 29.459C113.638 37.2538 110.872 33.315 112.524 25.769C113.886 19.0107 118.799 14.5743 121.317 19.1351L119.458 28.7542ZM141.587 28.92C140.183 32.9833 134.032 36.6733 134.982 31.698C135.931 26.8055 136.881 22.535 138.201 15.528H132.503L129.779 28.6713C127.468 40.2805 139.934 37.8757 143.196 28.92H141.587ZM136.138 13.2049C137.046 13.2049 137.83 12.9159 138.49 12.2927C139.15 11.6708 139.522 10.9257 139.522 9.97212C139.522 9.05996 139.193 8.31366 138.532 7.65027C137.913 7.02835 137.21 6.69666 136.26 6.69666C135.311 6.69666 134.569 7.02835 133.907 7.65027C133.289 8.31366 132.999 9.05996 132.958 9.97212C132.958 10.9257 133.248 11.6708 133.826 12.2927C134.444 12.9159 135.228 13.2049 136.138 13.2049ZM164.499 29.003C163.178 33.0235 157.315 36.8807 158.223 31.7809C159.131 26.7226 158.885 28.2152 159.876 23.074C161.61 13.7439 153.766 13.5793 149.306 18.6376L149.925 15.528H144.269L140.1 36.2587H145.962L148.564 22.4922C150.09 18.679 155.665 15.2792 154.756 20.0473C154.22 22.9496 153.682 25.8519 153.104 28.7542C151.287 39.5757 162.475 38.5391 166.108 29.003H164.499ZM180.476 15.3207H174.696C173.828 15.3207 173.085 15.3621 172.301 15.4036C168.174 15.6096 162.683 19.3826 161.856 28.92C161.155 37.3367 169.99 38.7879 174.573 33.0235L172.673 42.2292L172.508 42.8926C171.392 43.556 169.866 43.3487 167.802 41.7731L164.004 45.7534C176.224 49.2777 179.031 40.6122 180.765 30.9517L183.943 15.3207C183.777 15.3207 180.641 15.3207 180.476 15.3207ZM175.273 29.459C169.576 37.2538 166.686 33.3564 168.339 25.6446C169.866 18.8034 174.861 14.2841 177.38 18.9693L175.273 29.459Z" fill="#C0140D"/>
</svg>
